<?xml version="1.0" standalone="no"?>
<!DOCTYPE svg PUBLIC "-//W3C//DTD SVG 20010904//EN"
 "http://www.w3.org/TR/2001/REC-SVG-20010904/DTD/svg10.dtd">
<svg version="1.0" xmlns="http://www.w3.org/2000/svg"
 width="512.000000pt" height="512.000000pt" viewBox="0 0 512.000000 512.000000"
 preserveAspectRatio="xMidYMid meet">
<metadata>
Created by potrace 1.14, written by Peter Selinger 2001-2017
</metadata>
<g transform="translate(0.000000,512.000000) scale(0.100000,-0.100000)"
fill="#000000" stroke="none">
<path d="M1480 5059 c-64 -77 -79 -114 -81 -200 -1 -38 -5 -69 -9 -69 -4 0
-30 20 -58 45 -51 46 -88 115 -85 159 2 19 1 20 -8 3 -13 -22 -5 -87 15 -125
8 -16 33 -45 56 -66 23 -21 40 -39 38 -40 -1 -1 -23 -14 -48 -29 -76 -45 -158
-132 -198 -212 -21 -41 -92 -215 -92 -224 0 -3 20 15 45 39 l45 44 -15 -44
c-21 -65 -45 -229 -44 -302 1 -61 1 -62 12 -28 10 32 12 23 19 -85 9 -129 53
-481 66 -530 8 -29 7 -30 -37 -45 -64 -21 -80 -60 -96 -220 -22 -228 -17 -248
124 -484 73 -122 113 -164 168 -179 47 -12 46 -10 62 -142 20 -163 68 -331 89
-310 3 3 28 -36 55 -86 39 -73 52 -90 68 -86 15 4 22 -6 39 -49 21 -57 93
-190 113 -211 10 -10 12 -4 10 30 l-3 42 22 -55 c12 -30 25 -57 28 -60 3 -3
21 -29 39 -57 31 -50 133 -153 151 -153 4 0 -3 22 -16 50 -40 84 -27 110 21
40 47 -68 205 -203 220 -189 2 3 -10 26 -27 52 -34 53 -33 76 2 27 30 -42 187
-179 227 -198 31 -15 34 -14 74 13 24 15 85 68 136 118 51 49 93 86 93 82 0
-4 -15 -29 -34 -55 l-34 -48 46 26 c72 39 129 88 195 169 33 40 62 71 65 68 3
-3 -11 -37 -30 -75 l-36 -70 30 17 c57 34 116 110 274 353 16 25 40 67 54 94
14 27 27 48 30 46 14 -10 51 25 71 67 12 27 31 58 43 71 l21 24 6 -24 5 -23
12 22 c7 13 17 42 21 65 5 24 18 75 29 113 18 63 38 159 57 268 5 32 9 37 34
37 41 0 91 38 132 100 65 98 175 304 188 352 20 72 -4 346 -35 392 -14 22 -47
41 -85 48 -14 3 -15 9 -2 68 14 64 34 196 52 335 5 39 12 114 14 168 3 54 8
101 11 104 3 4 6 2 6 -3 0 -6 7 -19 15 -30 14 -18 14 -17 11 11 -2 17 -13 81
-25 144 -11 63 -19 117 -16 119 3 3 16 -5 30 -18 33 -31 32 -18 -6 42 -16 28
-29 51 -27 52 2 1 17 10 33 20 38 23 85 67 85 79 0 5 -15 -1 -34 -12 -33 -21
-127 -54 -133 -47 -2 2 11 9 29 17 43 17 139 109 177 168 58 89 127 329 103
353 -6 6 -12 0 -16 -17 -14 -57 -77 -115 -170 -157 -56 -26 -70 -24 -62 10 32
145 31 219 -6 304 l-20 48 -97 0 -96 0 -24 -35 c-13 -19 -27 -35 -32 -35 -14
0 -21 41 -9 55 11 13 -45 15 -431 15 l-444 0 -76 -74 c-208 -202 -374 -469
-386 -622 -7 -78 7 -87 45 -32 16 24 40 52 53 63 14 13 6 -4 -20 -43 -24 -35
-40 -66 -36 -70 3 -4 27 2 53 12 26 10 56 19 67 19 11 1 41 16 67 34 26 18 57
37 68 43 39 21 19 3 -47 -43 -38 -25 -76 -59 -86 -76 l-18 -31 28 5 c15 2 62
10 103 16 41 6 111 22 155 35 44 13 85 23 90 23 17 -1 -66 -30 -160 -55 l-90
-24 90 6 c50 3 121 12 158 20 38 8 87 12 110 9 30 -3 34 -2 13 3 -26 6 -20 9
50 25 114 27 156 43 275 102 157 77 244 138 334 229 44 44 70 68 58 51 -35
-49 -131 -144 -176 -173 -23 -15 -44 -29 -47 -32 -10 -12 -111 -70 -120 -70
-6 0 -10 -4 -10 -9 0 -5 -15 -14 -32 -22 -18 -7 -55 -22 -83 -34 -27 -13 -56
-24 -64 -27 -7 -2 40 -3 105 -1 66 2 114 0 107 -5 -7 -4 30 -27 97 -57 107
-49 135 -66 71 -44 -18 6 -34 9 -37 6 -3 -2 2 -62 11 -133 9 -71 18 -173 19
-227 3 -90 5 -101 36 -150 84 -131 100 -163 111 -213 12 -52 14 -55 53 -65 23
-6 47 -13 54 -15 8 -2 12 -25 12 -68 0 -57 -3 -67 -22 -77 -13 -7 -24 -12 -25
-11 -2 1 -12 2 -22 2 -14 0 -24 -13 -35 -42 l-15 -43 5 40 c8 60 11 65 39 65
14 0 25 6 25 13 0 8 3 7 10 -3 10 -16 13 -12 24 40 15 69 -7 77 -294 111 -58
7 -173 13 -257 13 -83 1 -150 2 -149 3 1 2 62 14 136 29 137 26 222 28 289 6
l33 -11 -18 21 c-32 37 -67 67 -114 97 -50 31 -100 47 -100 31 0 -5 -11 -10
-25 -10 -38 0 -349 -69 -395 -87 -8 -4 -18 -7 -21 -7 -4 -1 -25 -13 -48 -28
-33 -22 -39 -23 -31 -8 5 10 15 21 22 23 10 4 10 6 0 6 -7 1 -31 -18 -54 -41
l-41 -43 22 39 c18 32 19 37 5 25 -9 -8 -26 -34 -37 -58 -15 -34 -16 -46 -6
-55 9 -8 10 -8 5 2 -4 6 -2 12 3 12 6 0 11 -4 11 -9 0 -11 25 -7 89 14 66 21
181 44 181 35 0 -4 -28 -13 -62 -19 -74 -15 -151 -48 -212 -91 l-43 -31 -67
17 c-57 14 -76 15 -114 5 -26 -7 -56 -14 -68 -17 -14 -4 -34 6 -62 29 -58 49
-208 96 -367 116 -84 10 -393 -7 -525 -30 -36 -6 -75 -11 -88 -11 -27 -1 -42
-31 -42 -83 0 -29 4 -34 30 -40 35 -8 64 -45 57 -72 -4 -15 -5 -15 -6 3 -1 28
-31 53 -64 56 -26 2 -27 4 -27 64 0 79 6 94 39 94 40 0 49 10 70 81 11 35 48
107 81 158 l60 94 -6 68 c-6 56 8 271 22 343 6 35 133 121 201 137 21 5 96 9
167 9 l129 0 -38 30 c-21 17 -53 40 -72 51 -19 12 -32 23 -30 26 3 2 60 -25
128 -61 124 -64 236 -112 245 -103 2 2 0 17 -6 33 -14 37 -26 284 -14 284 5 0
8 -34 6 -76 -5 -109 4 -122 32 -44 30 85 56 135 131 250 66 102 189 253 251
310 l39 35 -455 3 c-442 2 -456 2 -503 -19 -56 -23 -144 -83 -169 -113 -10
-12 -18 -18 -18 -14 0 11 63 112 72 116 10 4 -17 32 -31 32 -6 0 -33 -27 -61
-61z m717 -396 c-3 -10 -5 -2 -5 17 0 19 2 27 5 18 2 -10 2 -26 0 -35z m728
-22 c-55 -21 -117 -46 -139 -55 -21 -10 -40 -15 -42 -13 -5 5 117 59 196 86
99 35 88 21 -15 -18z m-200 -81 c-3 -5 -12 -10 -18 -10 -7 0 -6 4 3 10 19 12
23 12 15 0z m-40 -18 c-16 -14 -145 -83 -145 -78 0 5 140 86 150 86 2 0 0 -4
-5 -8z m743 -149 c-10 -2 -26 -2 -35 0 -10 3 -2 5 17 5 19 0 27 -2 18 -5z
m-75 -10 c-13 -2 -33 -2 -45 0 -13 2 -3 4 22 4 25 0 35 -2 23 -4z m-440 -880
c-7 -2 -19 -2 -25 0 -7 3 -2 5 12 5 14 0 19 -2 13 -5z m-868 -77 c33 -7 84
-25 113 -40 70 -36 86 -71 77 -170 -24 -256 -108 -390 -277 -443 -83 -27 -247
-23 -321 6 -105 41 -169 116 -213 247 -31 94 -44 265 -25 312 24 57 94 82 301
106 61 7 283 -4 345 -18z m1279 -1 c166 -44 191 -98 150 -316 -32 -171 -111
-284 -233 -330 -69 -27 -230 -37 -312 -20 -175 37 -285 197 -296 436 -5 93 -3
102 19 135 32 47 106 85 192 99 39 6 82 13 96 15 57 10 327 -3 384 -19z m458
-118 c39 -32 47 -62 54 -219 6 -138 6 -145 -19 -205 -14 -35 -48 -100 -75
-145 -27 -46 -60 -103 -72 -128 -33 -66 -58 -90 -96 -90 -31 0 -33 2 -28 33 3
17 8 57 12 87 4 32 12 56 20 56 6 1 16 2 21 3 13 2 91 117 91 135 0 22 18 20
22 -1 3 -12 9 -4 17 22 11 35 10 46 -8 88 -12 27 -25 46 -31 42 -5 -3 -7 0 -4
8 3 9 -4 21 -16 30 l-21 15 31 33 c17 19 41 53 53 77 12 24 25 46 29 48 8 5 1
-113 -7 -126 -2 -3 3 -16 11 -30 13 -25 13 -25 15 15 4 153 2 185 -15 185 -7
0 -25 -15 -39 -33 -26 -34 -99 -176 -112 -216 -6 -21 -5 -23 11 -17 10 4 15 4
11 0 -3 -4 7 -22 23 -41 17 -18 30 -44 30 -56 0 -27 -46 -102 -84 -136 l-26
-24 0 39 c0 57 19 267 31 354 6 44 20 92 34 116 23 39 88 104 103 104 4 -1 19
-11 34 -23z m-2588 -27 c70 -78 77 -108 102 -480 l5 -85 -28 33 -29 34 0 -36
c0 -36 22 -56 46 -41 15 9 28 -35 36 -119 6 -67 5 -76 -10 -76 -55 0 -109 72
-239 320 l-39 75 6 150 c8 208 27 265 86 265 20 0 39 -12 64 -40z m1286 -75
c17 -9 30 -19 31 -23 6 -59 53 -191 90 -252 50 -84 105 -140 177 -178 119 -63
235 -81 372 -58 210 37 325 141 377 342 13 50 19 62 21 44 7 -45 -20 -223 -49
-322 -31 -102 -101 -276 -129 -318 -10 -14 -32 -50 -51 -80 -42 -68 -97 -130
-115 -130 -8 0 -27 27 -44 59 -35 71 -50 83 -50 43 0 -36 -27 -129 -40 -137
-15 -9 -41 9 -138 97 -136 124 -179 147 -286 154 -71 5 -100 2 -154 -15 -64
-19 -70 -19 -112 -4 -30 11 -80 17 -150 18 -92 1 -111 -2 -155 -23 -56 -28
-156 -106 -230 -181 -27 -28 -53 -51 -57 -51 -8 0 -43 71 -65 130 -9 22 -12
19 -32 -43 -13 -37 -27 -67 -33 -67 -18 0 -72 66 -120 147 -55 93 -108 218
-142 337 -24 81 -72 373 -64 382 2 2 14 -27 26 -64 55 -168 126 -243 272 -288
47 -15 92 -30 100 -34 22 -11 156 -1 224 16 92 24 156 61 219 127 77 82 121
176 151 327 10 52 96 76 156 45z m1220 -286 c0 -6 -4 -7 -10 -4 -5 3 -10 11
-10 16 0 6 5 7 10 4 6 -3 10 -11 10 -16z m10 -26 c-11 -17 -11 -17 -6 0 3 10
6 24 7 30 0 9 2 9 5 0 3 -7 0 -20 -6 -30z m-1201 -623 l64 -60 -146 0 c-80 0
-154 -2 -164 -5 -17 -6 -17 -5 1 7 10 7 49 37 85 65 36 29 73 53 81 52 8 0 44
-27 79 -59z m120 -89 c11 -6 38 -14 58 -16 131 -17 137 -19 151 -48 7 -15 16
-43 19 -61 6 -37 -18 -130 -41 -161 -14 -18 -14 -17 -6 20 8 36 7 38 -6 21 -8
-11 -14 -34 -14 -52 0 -18 -5 -36 -11 -40 -8 -5 -10 1 -7 20 8 41 -6 31 -32
-24 -17 -36 -31 -52 -53 -60 -16 -5 -32 -10 -34 -10 -2 0 -14 24 -27 54 -13
30 -43 75 -67 100 l-42 46 30 48 29 47 -75 -6 c-42 -4 -109 -4 -148 -1 -40 3
-73 2 -73 -2 0 -4 9 -24 20 -46 11 -22 20 -42 20 -45 0 -3 -16 -22 -35 -44
-19 -21 -46 -64 -60 -95 -14 -31 -28 -56 -32 -56 -39 1 -56 18 -96 97 -40 81
-65 94 -33 18 22 -53 -3 -30 -33 30 -14 29 -25 72 -28 119 -7 97 6 118 74 121
26 2 73 11 103 21 47 16 83 19 241 17 116 0 195 -5 208 -12z"/>
<path d="M1685 3325 c-75 -20 -136 -49 -175 -84 l-35 -30 40 2 c22 1 50 -2 61
-6 17 -6 23 -3 27 12 6 23 43 48 77 53 21 3 25 -2 30 -32 8 -46 24 -74 56 -99
34 -27 67 -27 113 1 47 28 61 46 61 80 0 15 5 28 12 28 15 0 101 -50 110 -64
11 -16 10 -4 -2 30 -6 17 -31 43 -61 63 -83 57 -208 75 -314 46z m110 -44 c7
-13 -32 -34 -46 -26 -7 5 -6 11 2 21 13 16 35 18 44 5z m35 -121 c0 -5 -7 -10
-16 -10 -8 0 -12 5 -9 10 3 6 10 10 16 10 5 0 9 -4 9 -10z"/>
<path d="M2987 3330 c-60 -15 -111 -46 -150 -89 -43 -48 -50 -77 -9 -39 15 14
37 31 49 37 20 10 24 8 39 -21 36 -72 111 -119 160 -102 55 20 93 90 75 138
-8 21 -8 26 4 26 30 0 120 -41 136 -61 13 -17 20 -19 35 -11 10 6 31 13 47 17
30 6 38 35 10 35 -10 0 -27 7 -38 16 -57 43 -272 75 -358 54z m-7 -64 c0 -8
-7 -16 -15 -20 -10 -4 -15 1 -15 14 0 11 7 20 15 20 8 0 15 -6 15 -14z m80
-121 c-14 -17 -46 -20 -55 -6 -3 5 9 12 27 14 18 2 35 5 37 5 2 1 -2 -5 -9
-13z"/>
<path d="M3741 3094 c0 -11 3 -14 6 -6 3 7 2 16 -1 19 -3 4 -6 -2 -5 -13z"/>
<path d="M1108 3208 c-19 -23 -24 -114 -9 -151 6 -15 9 -13 23 16 14 29 15 42
6 71 -6 20 -8 39 -4 43 9 9 56 -42 56 -61 0 -8 10 -35 21 -62 18 -39 19 -49 8
-53 -21 -6 -79 -67 -79 -82 0 -7 11 3 25 21 36 48 63 57 75 24 6 -14 15 -22
21 -18 34 21 -75 275 -118 274 -4 0 -16 -10 -25 -22z"/>
<path d="M1132 2875 c0 -16 2 -22 5 -12 2 9 2 23 0 30 -3 6 -5 -1 -5 -18z"/>
<path d="M2480 2789 c0 -68 4 -131 10 -139 5 -9 7 37 3 120 -3 74 -7 137 -9
139 -2 2 -4 -52 -4 -120z"/>
<path d="M2289 2641 c-13 -11 -21 -22 -18 -26 4 -3 14 1 22 10 9 8 20 15 26
15 6 0 11 5 11 10 0 15 -15 12 -41 -9z"/>
<path d="M2626 2587 c3 -10 9 -15 12 -12 3 3 0 11 -7 18 -10 9 -11 8 -5 -6z"/>
<path d="M2240 2566 c0 -8 4 -17 9 -20 5 -4 7 3 4 14 -6 23 -13 26 -13 6z"/>
<path d="M2526 2519 c-14 -11 -31 -29 -36 -40 -10 -17 -8 -18 14 -9 43 16 104
49 111 60 12 19 -62 10 -89 -11z"/>
<path d="M2290 2521 c0 -12 71 -54 78 -46 9 9 -40 55 -60 55 -10 0 -18 -4 -18
-9z"/>
<path d="M2965 4325 c32 -15 131 -20 139 -7 2 4 -14 7 -37 7 -23 0 -62 3 -87
7 -45 8 -45 8 -15 -7z"/>
<path d="M1592 3659 c-35 -17 -86 -53 -115 -79 l-52 -49 41 14 c79 27 152 28
259 5 55 -11 141 -28 190 -36 50 -8 140 -28 202 -44 130 -35 136 -35 157 -14
21 21 20 54 -4 84 -24 30 -25 24 -4 -25 8 -20 13 -39 11 -41 -2 -3 -10 9 -16
25 -7 16 -24 40 -38 53 l-26 23 18 -35 17 -35 -21 23 c-29 30 -68 54 -89 56
-9 1 -37 8 -62 15 -25 7 -54 15 -65 17 -91 17 -317 65 -328 69 -7 3 -41 -9
-75 -26z"/>
<path d="M3470 2096 c0 -9 -9 -40 -21 -71 -21 -57 -44 -79 -59 -55 -6 9 -20
-10 -44 -58 -20 -40 -42 -73 -49 -74 -6 0 -19 -1 -27 -2 -20 -1 -29 -49 -36
-191 l-6 -120 74 -51 c93 -64 172 -111 273 -160 44 -21 82 -40 84 -41 7 -4
-43 -115 -82 -181 -125 -209 -339 -420 -572 -563 -269 -166 -644 -253 -885
-205 -258 51 -452 149 -624 316 -50 49 -89 91 -86 94 3 2 39 -6 79 -20 41 -14
79 -23 85 -21 6 3 -2 8 -19 12 -16 4 -62 21 -101 36 -64 27 -72 34 -93 76 -61
125 -110 302 -111 395 l0 47 88 44 c139 69 259 136 273 153 9 11 10 47 5 142
-7 151 -24 228 -47 224 -20 -3 -59 47 -87 111 -11 26 -26 47 -32 47 -21 0 -94
-57 -152 -117 -104 -110 -184 -252 -214 -380 -12 -51 -23 -74 -35 -78 -10 -4
-39 -29 -65 -58 -37 -41 -56 -54 -96 -64 -99 -26 -133 -72 -126 -171 l4 -58
-81 -34 c-104 -44 -398 -187 -498 -242 -43 -24 -102 -62 -132 -85 l-55 -43 0
-325 0 -325 696 0 c592 0 695 2 691 14 -13 32 -40 176 -35 182 4 3 20 -2 36
-10 30 -16 45 -45 71 -143 l12 -43 982 0 983 0 23 77 c17 62 31 87 64 121 23
23 45 42 50 42 11 0 3 -38 -27 -135 -15 -44 -26 -86 -26 -92 0 -10 167 -13
800 -13 l800 0 0 324 0 324 -27 33 c-15 17 -59 52 -98 77 -74 48 -439 228
-577 285 -34 14 -52 37 -30 37 14 0 32 48 32 84 0 67 -88 153 -185 181 -51 15
-56 19 -91 83 -20 37 -47 81 -60 98 -16 22 -28 60 -37 121 -36 218 -158 333
-462 431 -98 32 -115 34 -115 18z m661 -719 c38 -74 41 -78 67 -72 58 12 146
-49 179 -124 12 -28 12 -36 0 -50 -326 -384 -697 -781 -697 -746 0 2 14 28 30
59 17 30 43 85 59 123 16 37 43 102 61 143 114 271 215 625 219 775 l1 30 21
-30 c11 -16 38 -65 60 -108z m-3076 -92 c-12 -62 -15 -107 -10 -158 8 -85 49
-300 72 -372 76 -243 131 -372 200 -469 21 -29 31 -52 26 -57 -13 -13 -151
154 -251 300 -66 96 -222 362 -222 377 0 2 -8 23 -19 47 -52 118 -68 210 -41
242 16 19 44 35 72 40 11 3 29 12 39 21 21 18 21 18 36 -10 9 -16 12 -13 27
25 17 42 75 114 84 104 2 -2 -3 -43 -13 -90z"/>
<path d="M3207 1743 c-4 -3 -6 -27 -6 -52 l1 -46 9 50 c8 51 7 60 -4 48z"/>
<path d="M3204 1375 c0 -49 1 -71 3 -48 2 23 2 64 0 90 -2 26 -3 8 -3 -42z"/>
<path d="M1708 653 c7 -3 16 -2 19 1 4 3 -2 6 -13 5 -11 0 -14 -3 -6 -6z"/>
<path d="M2865 649 c-130 -23 -178 -41 -219 -84 -42 -42 -83 -105 -69 -105 4
1 25 23 46 50 52 68 102 94 230 120 135 28 144 42 12 19z"/>
<path d="M1810 630 c41 -9 104 -23 140 -29 85 -17 113 -32 149 -85 17 -24 37
-46 46 -50 18 -7 16 -3 -27 62 -37 54 -70 68 -233 98 -150 27 -183 30 -75 4z"/>
</g>
</svg>
