<svg xmlns="http://www.w3.org/2000/svg" width="144" height="26" xml:space="preserve"><path d="M112.19.13h-.9c-6.1 0-11.04 5.4-11.04 12.06s4.94 12.06 11.03 12.06h1.86c2.47 0 4.76-.9 6.6-2.4l-2.07-3.27a8.41 8.41 0 0 1-4.6 1.7h-1.2c-3.97 0-7.2-3.85-7.2-8.1 0-5 3.52-8.07 7.2-8.07h1.2c1.2.13 3.75.79 3.97 2.33l.01 1.85h3.86V5.07c0-.66-.3-1.68-.88-2.26-1.81-1.81-4.97-2.67-6.9-2.67h-.94zM8.79.58.4 23.83h3.02L11.8.58h-3zm6.66 0L7.06 23.83h3.01L18.46.58h-3.01zm6.67 0-8.39 23.25h3.12v-.01c.92 0 1.69-.61 1.93-1.45l1.66-4.55h7.83l1.66 4.55a2.02 2.02 0 0 0 2.06 1.44l.01.02h3.59v-3.65h-1.54c-.27-.04-.48-.39-.58-.62L26.63.58h-4.5zm40.2 0-8.4 23.25h3.12v-.01c.92 0 1.7-.61 1.94-1.45l1.65-4.55h7.84l1.65 4.55a2.02 2.02 0 0 0 2.07 1.44v.02h3.6v-3.65h-1.54c-.27-.04-.48-.39-.58-.62L66.82.58h-4.5zm66.48 0-8.4 23.25h3.12v-.01c.92 0 1.7-.61 1.94-1.45l1.65-4.55h7.84l1.65 4.55a2.02 2.02 0 0 0 2.07 1.44v.02h3.6v-3.65h-1.54c-.27-.04-.48-.39-.58-.62L133.3.58h-4.5zm-46.81 0V.6h-3.82v23.24h2.5a1.72 1.72 0 0 0 1.7-1.99V9.65c0-.75-.17-1.19-.16-1.88.4.6.67 1.24 1.76 2.88 2.35 3.54 6.35 9.24 8.93 13.04l.06.14H93c0 .02.02.04.04.06v-.06h3.8V4.68c0-.24.19-.44.42-.46h1.68V.6h-4.66a1.72 1.72 0 0 0-1.7 2v11.33c-.02.95.18 1.88.15 2.83-.28-.45-.6-1.22-1.4-2.45-2.34-3.54-6.64-9.72-9.34-13.7V.58zM43.17.6l-7.84.02v3.61h2.1c-.07 5.9.04 11.77.04 17.6 0 0-.24 1.97 2.09 1.97H46c5.15 0 7.44-3.34 7.44-6.5v-.62c0-2.25-1.51-4.18-3.73-5.12a5.13 5.13 0 0 0 2.86-4.61v-.62C52.58 3.15 49.56.6 45.8.6h-2.63zm.18 3.64h1.56c2.36 0 3.24.83 3.35 2.9v.32c0 1.06-1.02 2.6-2.54 2.6h-3.98v-5.8l1.6-.02zm-18.98.71.02.12c.6 2.58 1.78 5.95 2.92 9.29h-5.88c1.15-3.34 2.33-6.71 2.92-9.3l.02-.1zm40.2 0 .02.12c.6 2.58 1.77 5.95 2.92 9.29h-5.88c1.15-3.34 2.32-6.71 2.92-9.3l.02-.1zm66.48 0 .02.12c.6 2.58 1.77 5.95 2.91 9.29h-5.87c1.15-3.34 2.32-6.71 2.92-9.3l.02-.1zm-85.32 8.57c2.1-.02 3.36 1.22 3.34 3.34v.36c0 1.2-1.15 2.97-2.85 2.97h-4.48v-6.64c1.31 0 2.71 0 4-.03z" style="fill:#5a85d7;fill-opacity:1;stroke:none"/></svg>