<svg width="34" height="30" xmlns="http://www.w3.org/2000/svg">
    <g fill="none" fill-rule="evenodd">
        <path d="M1.33 1H33v28H1.33z"/>
        <path d="M11.843 28.175a6.579 6.579 0 0 1-1.86-1.393 6.737 6.737 0 0 1-1.3-2.06c-.327-.795-.49-1.72-.49-2.772 0-1.053.225-2.013.675-2.88a6.574 6.574 0 0 1 1.843-2.199c.777-.598 1.702-1.063 2.772-1.393 1.07-.33 2.225-.496 3.465-.496 1.24 0 2.394.165 3.465.496 1.07.33 2.005.795 2.805 1.393a6.41 6.41 0 0 1 1.876 2.199c.45.867.676 1.827.676 2.88s-.18 2.003-.54 2.85c-.361.846-.823 1.563-1.387 2.152a6.727 6.727 0 0 1-1.876 1.393c-.687.34-1.346.542-1.977.604v-.372c.563-.062 1.16-.258 1.791-.588a6.504 6.504 0 0 0 1.741-1.347c.53-.568.97-1.244 1.319-2.029.35-.784.524-1.672.524-2.663 0-.97-.225-1.858-.676-2.663a6.817 6.817 0 0 0-1.826-2.09c-.766-.589-1.656-1.043-2.67-1.363a10.72 10.72 0 0 0-3.245-.48c-1.15 0-2.231.16-3.245.48-1.014.32-1.9.774-2.654 1.362a6.707 6.707 0 0 0-1.792 2.09 5.468 5.468 0 0 0-.659 2.664c0 .99.158 1.868.474 2.632a6.318 6.318 0 0 0 1.233 1.951 6.635 6.635 0 0 0 1.724 1.316c.643.341 1.29.584 1.944.728v.372a9.434 9.434 0 0 1-2.13-.774"
              stroke="#000" stroke-width=".6" stroke-linecap="round" stroke-linejoin="round"/>
        <path d="M31.988 20.113a6.558 6.558 0 0 1-1.395 1.856 6.738 6.738 0 0 1-2.062 1.3c-.797.326-1.722.49-2.776.49-1.055 0-2.016-.226-2.885-.676a6.568 6.568 0 0 1-2.201-1.84c-.6-.776-1.065-1.699-1.396-2.767-.331-1.07-.497-2.222-.497-3.46s.166-2.391.497-3.46c.33-1.069.796-2.003 1.396-2.801A6.415 6.415 0 0 1 22.87 6.88c.869-.45 1.83-.675 2.885-.675 1.054 0 2.006.18 2.853.54.848.36 1.566.821 2.156 1.384a6.726 6.726 0 0 1 1.395 1.873c.341.687.543 1.345.605 1.975h-.372c-.062-.562-.259-1.159-.59-1.789-.33-.63-.78-1.21-1.349-1.738a7.3 7.3 0 0 0-2.031-1.317c-.786-.349-1.675-.523-2.667-.523-.972 0-1.861.225-2.667.675a6.821 6.821 0 0 0-2.094 1.823c-.589.765-1.044 1.654-1.364 2.667a10.673 10.673 0 0 0-.481 3.24c0 1.148.16 2.228.48 3.24.32 1.013.776 1.896 1.365 2.65a6.713 6.713 0 0 0 2.094 1.789c.806.439 1.695.658 2.667.658.992 0 1.87-.157 2.636-.472.765-.315 1.417-.726 1.954-1.233a6.643 6.643 0 0 0 1.318-1.721 7.67 7.67 0 0 0 .729-1.94h.372a9.398 9.398 0 0 1-.776 2.126M1.974 9.952A6.56 6.56 0 0 1 3.37 8.096a6.738 6.738 0 0 1 2.062-1.3c.796-.326 1.722-.489 2.776-.489 1.055 0 2.016.225 2.884.675a6.572 6.572 0 0 1 2.202 1.84c.6.776 1.065 1.698 1.396 2.767.33 1.069.496 2.223.496 3.46 0 1.238-.165 2.391-.496 3.46-.33 1.069-.796 2.003-1.396 2.801a6.416 6.416 0 0 1-2.202 1.874c-.868.45-1.83.675-2.884.675-1.054 0-2.006-.18-2.853-.54-.848-.36-1.566-.821-2.156-1.384a6.718 6.718 0 0 1-1.395-1.873c-.342-.687-.543-1.345-.605-1.975h.372c.062.562.258 1.159.59 1.789.33.63.78 1.21 1.348 1.738a7.299 7.299 0 0 0 2.032 1.317c.785.349 1.675.523 2.667.523.972 0 1.861-.225 2.667-.675a6.83 6.83 0 0 0 2.094-1.823c.589-.765 1.044-1.654 1.364-2.666.32-1.013.48-2.093.48-3.24 0-1.148-.16-2.229-.48-3.241-.32-1.013-.775-1.896-1.364-2.65a6.716 6.716 0 0 0-2.094-1.789c-.806-.439-1.695-.658-2.667-.658-.992 0-1.871.157-2.636.473a6.328 6.328 0 0 0-1.954 1.232A6.629 6.629 0 0 0 2.3 10.138a7.658 7.658 0 0 0-.729 1.94h-.372c.165-.72.424-1.428.775-2.126"
              stroke="#000" stroke-width=".6" stroke-linecap="round" stroke-linejoin="round"/>
        <path d="M13.973 1.116v.372a7.686 7.686 0 0 0-1.944.728c-.642.34-1.217.779-1.724 1.316-.507.536-.918 1.187-1.234 1.95-.315.765-.473 1.642-.473 2.633 0 .97.22 1.858.66 2.664a6.706 6.706 0 0 0 1.791 2.09c.755.588 1.639 1.042 2.653 1.362 1.015.32 2.096.48 3.246.48 1.149 0 2.23-.16 3.245-.48 1.014-.32 1.904-.774 2.67-1.362a6.818 6.818 0 0 0 1.825-2.09 5.358 5.358 0 0 0 .677-2.664c0-.991-.175-1.879-.525-2.663a7.267 7.267 0 0 0-1.318-2.029 6.503 6.503 0 0 0-1.74-1.347c-.631-.33-1.229-.526-1.792-.588v-.372c.63.062 1.29.263 1.977.604.688.34 1.313.805 1.877 1.394.563.588 1.025 1.306 1.385 2.152.361.846.541 1.796.541 2.85 0 1.052-.225 2.012-.676 2.88a6.411 6.411 0 0 1-1.876 2.198c-.8.599-1.735 1.063-2.805 1.394-1.071.33-2.226.495-3.465.495-1.24 0-2.395-.165-3.465-.495-1.07-.33-1.994-.795-2.772-1.394a6.57 6.57 0 0 1-1.842-2.199c-.451-.867-.676-1.827-.676-2.88s.163-1.977.49-2.771a6.724 6.724 0 0 1 1.3-2.06 6.57 6.57 0 0 1 1.86-1.394 9.42 9.42 0 0 1 2.13-.774"
              stroke="#000" stroke-width=".6" stroke-linecap="round" stroke-linejoin="round"/>
    </g>
</svg>