<svg class="w-6 h-6" height="48" width="48" xmlns="http://www.w3.org/2000/svg"><path d="M15 25h4v-2h-4v2zM4 27h7v-7H4v7zm8 2H3a1 1 0 0 1-1-1v-9a1 1 0 0 1 1-1h9a1 1 0 0 1 1 1v9a1 1 0 0 1-1 1zm31.2-2L40 21.9 36.8 27h6.4zm2.7 1.5a1 1 0 0 1-.9.5H35a1 1 0 0 1-.9-1.5l5-8a1 1 0 0 1 1.8 0l5 8v1zM43 41a3 3 0 1 0-6 0 3 3 0 0 0 6 0zm2 0a5 5 0 0 1-9.9 1H7a1 1 0 0 1-1-1V31h2v9h27.1a5 5 0 0 1 5.9-3.9 5 5 0 0 1 4 4.9zM22 25h4v-2h-4v2zM37 7a3 3 0 1 0 6 0 3 3 0 0 0-6 0zM8 16H6V7a1 1 0 0 1 1-1h28.1a5 5 0 1 1 9.8 2 5 5 0 0 1-9.8 0H8v8zm21 9h4v-2h-4v2z" fill="#BF0816" fill-rule="evenodd"/></svg>