<svg width="80" height="80" xmlns="http://www.w3.org/2000/svg"><defs><linearGradient x1="0%" y1="100%" x2="100%" y2="0%" id="a"><stop stop-color="#C8511B" offset="0%"/><stop stop-color="#F90" offset="100%"/></linearGradient></defs><g fill="none" fill-rule="evenodd"><path d="M0 0h80v80H0z" fill="url(#a)"/><path d="M38.79 37.58c-.5.29-.8.82-.8 1.4v27.74l-21-11.74V27.71l23.57-13.65 20.92 10.37-22.7 13.15ZM63.92 24.4c0-.57-.3-1.1-.86-1.42L41.35 12.2a1.6 1.6 0 0 0-1.61 0L15.8 26.09c-.5.3-.8.83-.8 1.4v27.74c0 .57.3 1.1.82 1.4l21.75 12.17a1.6 1.6 0 0 0 2.41-1.4V39.2l23.14-13.4c.5-.29.8-.82.8-1.4Zm.05 30.65L44.98 66.66v-10.4l9.9-6.39.07-.45c.02-.11.02-.11.02-.65l.04-12.41L64 31.15l-.03 23.9Zm1.23-25.98a1.6 1.6 0 0 0-1.61 0L54 34.62c-.3.16-1 .55-1 1.34l-.03 12.76-9.13 5.89c-.54.32-.87.84-.87 1.38V67.3c0 .56.3 1.08.82 1.38a1.73 1.73 0 0 0 1.7 0l19.67-12.03c.5-.28.8-.82.8-1.39l.03-24.8c0-.58-.3-1.11-.8-1.4Z" fill="#FFF"/></g></svg>