<svg class="w-6 h-6" height="40" width="40" xmlns="http://www.w3.org/2000/svg"><defs><linearGradient x1="0%" y1="100%" x2="100%" y2="0%" id="a"><stop stop-color="#4D27A8" offset="0%"/><stop stop-color="#A166FF" offset="100%"/></linearGradient></defs><g fill="none" fill-rule="evenodd"><path d="M0 0h40v40H0z" fill="url(#a)"/><path d="M18.73 14.29c1.8 0 2.98.28 3.42.5-.44.2-1.62.5-3.42.5-1.8 0-2.99-.3-3.42-.5.43-.22 1.62-.5 3.42-.5zm.01 3.2c-.09-.03-.16-.09-.16-.19 0-.14.11-.25.25-.25.04 0 .07.02.1.04l-.19.4zm2.94 4.15a1.2 1.2 0 0 1-.3.15 4.02 4.02 0 0 1-.57.17 9.26 9.26 0 0 1-1.98.2c-1.54 0-2.61-.32-2.84-.52l-.7-5.8c1.2.4 2.94.44 3.44.44s2.27-.03 3.46-.45l-.2 2.3a34.45 34.45 0 0 1-2.44-1.04.75.75 0 0 0-1.48.21.75.75 0 0 0 1.04.7c1.18.55 2.1.94 2.78 1.18l-.21 2.46zm-7.53-6.8.83 6.9c0 1.4 3.7 1.42 3.85 1.42.78 0 1.57-.08 2.2-.23.28-.06.51-.13.72-.2.62-.25.94-.58.94-.95l.2-2.3c.3.06.53.09.71.09.48 0 .6-.19.7-.32l.07-.48c-.12-.49-1-1.18-1.3-1.4l.23-2.54v-.05c0-1.42-3.81-1.5-4.57-1.5-.77 0-4.58.08-4.58 1.5l.01.06zm4.6-5.45c4.76 0 8.64 3.8 8.64 8.48s-3.88 8.48-8.65 8.48c-4.76 0-8.64-3.8-8.64-8.48s3.88-8.48 8.64-8.48zM6.01 21.27v1h4.17a9.69 9.69 0 0 0 8.55 5.08 9.58 9.58 0 0 0 9.66-9.48 9.58 9.58 0 0 0-9.66-9.47 9.64 9.64 0 0 0-9.28 6.88H6.02v1h3.21a9.24 9.24 0 0 0-.14 1.6l.02.4H5v1h4.2c.1.68.29 1.35.54 1.99H6.02zM33.5 32.53c-.61.6-1.68.61-2.3 0l-5.25-5.15a12.07 12.07 0 0 0 2.34-2.24l5.22 5.14a1.57 1.57 0 0 1 0 2.25zm.73-2.95-5.33-5.26a11.64 11.64 0 0 0 1.95-6.45A12 12 0 0 0 18.75 6c-4.8 0-9.15 2.78-11.09 7.09l.93.4a11.11 11.11 0 0 1 10.15-6.5 11 11 0 0 1 11.1 10.88 11 11 0 0 1-11.1 10.88c-3.73 0-7.19-1.83-9.25-4.89l-.85.55a12.15 12.15 0 0 0 10.1 5.33c2.34 0 4.51-.66 6.36-1.78l5.39 5.28c.5.5 1.16.76 1.86.76a2.66 2.66 0 0 0 1.87-.76 2.55 2.55 0 0 0 0-3.66z" fill="#FFF"/></g></svg>