<svg width="80" height="80" xmlns="http://www.w3.org/2000/svg"><defs><linearGradient x1="0%" y1="100%" x2="100%" y2="0%" id="a"><stop stop-color="#BD0816" offset="0%"/><stop stop-color="#FF5252" offset="100%"/></linearGradient></defs><g fill="none" fill-rule="evenodd"><path d="M0 0h80v80H0z" fill="url(#a)"/><path d="M57 61c0-1.63-1.37-3-3-3s-3 1.37-3 3 1.37 3 3 3 3-1.37 3-3Zm-17-1c-1.63 0-3 1.37-3 3s1.37 3 3 3 3-1.37 3-3-1.37-3-3-3Zm-14-2c-1.63 0-3 1.37-3 3s1.37 3 3 3 3-1.37 3-3-1.37-3-3-3Zm2.6-15h22.8l-7.66-6.89-3.1 2.65a1 1 0 0 1-1.3 0l-3.08-2.65L28.61 43ZM27 28.17v13.58l7.73-6.95L27 28.17ZM51.3 27H28.7L40 36.68 51.3 27ZM53 41.75V28.17l-7.73 6.63L53 41.75ZM59 61c0 2.71-2.29 5-5 5s-5-2.29-5-5a5.08 5.08 0 0 1 4-4.9V53H41v5.1c2.25.48 4 2.53 4 4.9 0 2.71-2.29 5-5 5s-5-2.29-5-5a5.08 5.08 0 0 1 4-4.9V53H27v3.1c2.25.48 4 2.53 4 4.9 0 2.71-2.29 5-5 5s-5-2.29-5-5a5.08 5.08 0 0 1 4-4.9V52a1 1 0 0 1 1-1h13v-6H26a1 1 0 0 1-1-1V26a1 1 0 0 1 1-1h28a1 1 0 0 1 1 1v18a1 1 0 0 1-1 1H41v6h13a1 1 0 0 1 1 1v4.1c2.25.48 4 2.53 4 4.9Zm9-21c0 5.9-1.82 11.56-5.27 16.34l-1.63-1.17A25.8 25.8 0 0 0 66 40c0-14.34-11.66-26-26-26S14 25.66 14 40a25.8 25.8 0 0 0 4.9 15.17l-1.63 1.17A27.78 27.78 0 0 1 12 40c0-15.44 12.56-28 28-28s28 12.56 28 28Z" fill="#FFF"/></g></svg>