<svg class="w-6 h-6" height="40" width="40" xmlns="http://www.w3.org/2000/svg"><defs><linearGradient x1="0%" y1="100%" x2="100%" y2="0%" id="a"><stop stop-color="#4D27A8" offset="0%"/><stop stop-color="#A166FF" offset="100%"/></linearGradient></defs><g fill="none" fill-rule="evenodd"><path d="M0 0h40v40H0z" fill="url(#a)"/><path d="M24.02 20.31c.35.32.52.74.52 1.28 0 .58-.21 1.04-.63 1.38-.41.35-.97.52-1.68.52a4.11 4.11 0 0 1-1.64-.35v-.71c.64.21 1.19.32 1.65.32.44 0 .79-.1 1.03-.3.24-.2.36-.5.36-.86 0-.72-.45-1.08-1.35-1.08a8.13 8.13 0 0 0-.84.05v-.59l1.86-2.03h-2.62v-.72h3.6v.7l-1.82 1.93a.45.45 0 0 1 .09-.01h.08c.59 0 1.05.16 1.4.47m-5.15-.15c.36.34.54.8.54 1.39 0 .58-.21 1.05-.63 1.4-.42.36-.97.54-1.66.54a4.09 4.09 0 0 1-1.7-.35v-.71c.66.21 1.23.32 1.7.32.44 0 .79-.1 1.02-.3.24-.21.36-.5.36-.89 0-.42-.1-.73-.33-.91-.23-.2-.6-.29-1.1-.29-.37 0-.83.03-1.38.1v-.6l.17-2.64h3.24v.72h-2.5l-.1 1.8c.32-.06.6-.09.87-.09.64 0 1.14.17 1.5.51m6.65 6.46c-2.24.4-4.2 1.31-5.53 2.06a18.06 18.06 0 0 0-5.53-2.06c-.63-.11-3.76-.76-3.76-2.56 0-.83.3-1.39.88-2.38.7-1.2 1.56-2.7 1.56-4.85 0-1.53-.4-3-1.18-4.37l.25-.3a7.92 7.92 0 0 0 7.78-.3 7.93 7.93 0 0 0 7.78.3l.25.3a8.67 8.67 0 0 0-1.18 4.37c0 2.16.86 3.65 1.56 4.85.57 1 .87 1.55.87 2.38 0 1.8-3.12 2.45-3.75 2.56m2.31-9.79c0-1.45.41-2.85 1.22-4.15a.5.5 0 0 0-.03-.58l-.73-.89a.5.5 0 0 0-.63-.12 7.22 7.22 0 0 1-3.52.94 6.57 6.57 0 0 1-3.87-1.19.5.5 0 0 0-.56 0 6.58 6.58 0 0 1-3.87 1.2c-1.2 0-2.39-.32-3.52-.95a.5.5 0 0 0-.63.12l-.73.9a.5.5 0 0 0-.03.57c.8 1.3 1.22 2.7 1.22 4.15 0 1.89-.8 3.25-1.43 4.35-.63 1.08-1.01 1.8-1.01 2.88 0 2.53 3.5 3.35 4.57 3.54 2.25.4 4.21 1.36 5.46 2.09a.5.5 0 0 0 .5 0 17.2 17.2 0 0 1 5.46-2.09c1.07-.19 4.57-1.01 4.57-3.54 0-1.08-.38-1.8-1-2.88-.65-1.1-1.44-2.46-1.44-4.35M26.01 29.3c-2.82.5-5.19 2.01-6.01 2.58a16.23 16.23 0 0 0-6.01-2.58c-1.4-.26-6-1.38-6-5.24 0-1.6.64-2.7 1.25-3.75.59-1.01 1.2-2.06 1.2-3.48a6.5 6.5 0 0 0-1.92-4.45c.68-.82 2.32-2.82 3.15-3.9a6.2 6.2 0 0 0 4.18 1.83c1.6 0 2.94-.65 4.15-2.03a5.28 5.28 0 0 0 4.15 2.03c1.45 0 2.92-.64 4.18-1.82.83 1.07 2.47 3.07 3.15 3.89a6.5 6.5 0 0 0-1.92 4.45c0 1.42.61 2.47 1.2 3.48.61 1.06 1.24 2.15 1.24 3.75 0 3.86-4.58 4.99-5.99 5.24m5.61-9.49c-.57-.98-1.06-1.83-1.06-2.98 0-2.43 1.9-4 1.91-4.02a.5.5 0 0 0 .07-.7c-.03-.04-3.06-3.72-3.76-4.67a.5.5 0 0 0-.76-.05 5.43 5.43 0 0 1-3.87 1.92c-1.47 0-2.63-.65-3.75-2.12a.52.52 0 0 0-.8 0c-1.12 1.47-2.28 2.12-3.75 2.12-1.33 0-2.7-.68-3.87-1.92a.5.5 0 0 0-.76.05c-.7.95-3.73 4.63-3.76 4.67a.5.5 0 0 0 .07.7c.02.02 1.9 1.58 1.9 4.02 0 1.15-.48 2-1.05 2.98C7.73 20.93 7 22.2 7 24.06c0 3.13 2.55 5.45 6.81 6.22 3.2.57 5.86 2.6 5.89 2.62a.5.5 0 0 0 .6 0c.03-.02 2.7-2.05 5.89-2.62 4.26-.77 6.81-3.09 6.81-6.22 0-1.87-.73-3.13-1.38-4.25" fill="#FFF"/></g></svg>