<svg class="w-6 h-6" height="48" width="48" xmlns="http://www.w3.org/2000/svg"><path d="M36 7.6A44.2 44.2 0 0 0 32 7c-2.3-1-6.7-2-12.7-2C8.7 5 4.1 7.8 4 8.7V9c.2.5 1.7 1.5 5.3 2.2-.5.6-.9 1.2-1 1.8-1.5-.3-2.8-.7-3.9-1.2L7.8 36v.2c0 .1.7.8 3 1.5l.4 2c-3.5-.7-5.3-1.9-5.3-3.4L2 9.4v-.5H2v-.1C2 5 11 3 19.4 3 27 3 34.4 4.6 36 7.6zM41.9 29l.1-1 1.8 1.3c-.4 0-1 0-1.9-.3zm-3.7 12.4a.8.8 0 0 0 0 .1c0 .1-.4.6-1.6 1l-2.2.7a35 35 0 0 1-7.6.8c-7 0-11.2-1.7-11.4-2.5a1 1 0 0 0 0-.1L12 16.9c3.3 1.7 9.5 2.4 15 2.4 5.3 0 11.2-.7 14.5-2.3L40 28.4c-4-1.2-9-3.5-11.2-4.5a2 2 0 0 0-2-1.6 2 2 0 0 0-1.9 1.9 2 2 0 0 0 2 1.9 2 2 0 0 0 1-.4c2.8 1.3 7.9 3.5 11.8 4.7l-1.5 11zM27 10.3c9.6 0 14.8 2.4 14.9 3.7-.2 1.3-5.2 3.3-15 3.3s-15-2-15.3-3.2V14c0-1 4.7-3.7 15.4-3.7zm19 18.9c-.2-1-1.3-2-3.7-3.4L44 14.2V14c0-3.8-8.5-5.7-17-5.7-8.3 0-17.3 2-17.3 5.7v.1l3.8 27.5c.2 3.2 8 4.4 13.4 4.4a37 37 0 0 0 8-.8 17.5 17.5 0 0 0 2.5-.8c1.9-.7 2.9-1.7 3-2.8L41.5 31l2.1.3c.9 0 1.5-.3 1.9-.7.3-.4.4-1 .4-1.4z" fill="#3F8624" fill-rule="evenodd"/></svg>