<svg class="w-6 h-6" height="40" width="40" xmlns="http://www.w3.org/2000/svg"><defs><linearGradient x1="0%" y1="100%" x2="100%" y2="0%" id="a"><stop stop-color="#4D27A8" offset="0%"/><stop stop-color="#A166FF" offset="100%"/></linearGradient></defs><g fill="none" fill-rule="evenodd"><path d="M0 0h40v40H0z" fill="url(#a)"/><path d="M28 26.5a1.5 1.5 0 1 0-3 0 1.5 1.5 0 0 0 3 0zm1 0a2.5 2.5 0 0 1-2.5 2.5 2.5 2.5 0 0 1-2.5-2.5 2.5 2.5 0 0 1 2.5-2.5 2.5 2.5 0 0 1 2.5 2.5zm-14-8a1.5 1.5 0 1 0-3 0 1.5 1.5 0 0 0 3 0zm1 0a2.5 2.5 0 0 1-2.5 2.5 2.5 2.5 0 0 1-2.5-2.5 2.5 2.5 0 0 1 2.5-2.5 2.5 2.5 0 0 1 2.5 2.5zm4-8.01a1.5 1.5 0 1 0 3 0 1.5 1.5 0 0 0-3 0zm-1 0a2.5 2.5 0 0 1 2.5-2.5 2.5 2.5 0 0 1 2.5 2.5 2.5 2.5 0 0 1-2.5 2.5 2.5 2.5 0 0 1-2.5-2.5zm14 9.5c0-4.63-2.48-8.93-6.5-11.25-.71.15-1.41.35-2.27.66l-.34-.94a19.87 19.87 0 0 1 1.23-.4A12.95 12.95 0 0 0 20 6.99c-.84 0-1.68.09-2.49.25.59.34 1.11.68 1.62 1.07l-.6.8c-.72-.55-1.46-1-2.43-1.52a13.02 13.02 0 0 0-9 10.97 17.6 17.6 0 0 1 3.1-.35l.03 1a16.32 16.32 0 0 0-3.22.39L7 20c0 4.33 2.15 8.33 5.68 10.73a16.79 16.79 0 0 1-.95-5.36c0-.98.16-1.8.34-2.65l.13-.6.98.2-.13.6c-.17.85-.32 1.57-.32 2.45 0 1.95.43 3.97 1.3 6.17a12.84 12.84 0 0 0 9.98.82c.5-1 .87-1.93 1.18-3.01l.97.28c-.23.79-.5 1.5-.8 2.2.8-.35 1.56-.8 2.27-1.32-.17-.43-.35-.85-.55-1.26l.9-.45c.17.35.3.7.46 1.06A12.9 12.9 0 0 0 33 20zm1 0c0 4.37-1.98 8.4-5.44 11.08a13.69 13.69 0 0 1-4.04 2.18 14 14 0 0 1-11.12-.9 13.98 13.98 0 0 1-7.37-13.2A14.02 14.02 0 0 1 16 6.57a14.15 14.15 0 0 1 10.84 1.2A14.02 14.02 0 0 1 34 20zm-15.34-7.27-.66-.75c-1.12.98-2 2.02-3.01 3.58l.84.55a15.08 15.08 0 0 1 2.83-3.38zm-1.85 7.43c2.3.8 4.3 2.05 6.3 3.96l.7-.72a17.82 17.82 0 0 0-6.67-4.18l-.33.94zm7.01-6.83a19 19 0 0 1 3.14 9.34l-1 .07c-.2-3.16-1.2-6.14-2.97-8.86l.83-.55z" fill="#FFF"/></g></svg>