<svg class="w-6 h-6" height="40" width="40" xmlns="http://www.w3.org/2000/svg"><defs><linearGradient x1="0%" y1="100%" x2="100%" y2="0%" id="a"><stop stop-color="#1B660F" offset="0%"/><stop stop-color="#6CAE3E" offset="100%"/></linearGradient></defs><g fill="none" fill-rule="evenodd"><path d="M0 0h40v40H0z" fill="url(#a)"/><path d="M30.01 24.36a1.01 1.01 0 0 0-1-1.01 1.01 1.01 0 0 0-1 1.01 1 1 0 0 0 1 1.02 1.01 1.01 0 0 0 1-1.02m-1.6 1.93a2.01 2.01 0 0 1-1.33-1.42H25.5v5.44a5.58 5.58 0 0 0 2.9-4.02m-3.9 4.43v-6.36c0-.28.22-.5.5-.5h2.07c.12-.47.39-.87.76-1.14a5.57 5.57 0 0 0-3.01-2.6 2.01 2.01 0 0 1-1.33 1.12v9.67a5.46 5.46 0 0 0 1-.2m-2 .2v-9.67a2.01 2.01 0 0 1-1.32-1.12 5.57 5.57 0 0 0-3.02 2.6c.37.27.64.67.76 1.13H21c.27 0 .5.23.5.51v6.36c.32.09.65.15 1 .19m-2-.6v-5.44h-1.58a2.01 2.01 0 0 1-1.33 1.42 5.58 5.58 0 0 0 2.9 4.02M17 25.37a1.01 1.01 0 0 0 1-1.01 1.01 1.01 0 0 0-1-1.01 1.01 1.01 0 0 0-1 1.01c0 .56.45 1.01 1 1.01m5-6.08A1 1 0 0 0 23 20.3a1.01 1.01 0 0 0 1-1.01 1.01 1.01 0 0 0-1-1.02 1.01 1.01 0 0 0-1 1.02M31 24.36c0 .97-.68 1.78-1.58 1.98a6.62 6.62 0 0 1-3.93 5.11V34h-1v-2.22a6.31 6.31 0 0 1-1 .17V34h-1v-2.05a6.31 6.31 0 0 1-1-.17V34h-1v-2.55a6.62 6.62 0 0 1-3.93-5.1 2.02 2.02 0 0 1-1.58-1.99c0-1.12.9-2.03 2-2.03.08 0 .16.02.23.03a6.58 6.58 0 0 1 3.8-3.25A2 2 0 0 1 23 17.25a2 2 0 0 1 1.98 1.84 6.58 6.58 0 0 1 3.8 3.25l.23-.02c1.1 0 2 .91 2 2.03M34 19.22a5.27 5.27 0 0 1-1.55 3.86l-.69-.73a4.21 4.21 0 0 0 1.24-3.1c0-2.26-1.65-4.1-3.83-4.3a.5.5 0 0 1-.45-.55v-.17a2.63 2.63 0 0 0-2.6-2.66c-.67 0-1.3.27-1.8.74a.5.5 0 0 1-.81-.19 6.25 6.25 0 0 0-5.81-4.1 6.28 6.28 0 0 0-6.22 6.32.51.51 0 0 1-.34.49A4.6 4.6 0 0 0 8 19.23a4.59 4.59 0 0 0 4.54 4.62v1.02A5.6 5.6 0 0 1 7 19.23a5.62 5.62 0 0 1 3.5-5.24 7.28 7.28 0 0 1 7.2-7 7.25 7.25 0 0 1 6.48 4.15 3.53 3.53 0 0 1 1.94-.58 3.64 3.64 0 0 1 3.6 3.44A5.25 5.25 0 0 1 34 19.2" fill="#FFF"/></g></svg>