<svg class="w-6 h-6" height="48" width="48" xmlns="http://www.w3.org/2000/svg"><path d="M26 25h1.8v-2H26v2zm-3 0h2v-2h-2v2zm-2.8 0H22v-2h-2v2zm17.1 6-6.6 5.8V11.3l6.6 5.8V31zM31 9c-.2-.2-1-.4-1.7 0l-.5.2V39l.5.3.8.2 1-.2 7.6-6.6c.4-.3.7-.8.7-1.3V16.8c0-.5-.3-1-.7-1.2L31 9h-.2zM17.3 36.7 10.7 31V17.1l6.6-5.8v25.5zM17 8.9h-.2l-7.5 6.7c-.4.2-.7.7-.7 1.2v14.5c0 .5.3 1 .7 1.3L17 39l.2.1 1 .2c.2 0 .4 0 .7-.2l.5-.3V9.2l-.5-.3c-.7-.3-1.5 0-1.7 0zM44 32.3 32.3 44H15.7L4 32.3V15.7L15.7 4h16.6L44 15.7v16.6zM33.1 2H15L2 14.9V33L14.9 46H33L46 33.1V15L33.1 2z" fill="#4D27AA" fill-rule="evenodd"/></svg>