<svg width="80" height="80" xmlns="http://www.w3.org/2000/svg"><defs><linearGradient x1="0%" y1="100%" x2="100%" y2="0%" id="a"><stop stop-color="#C8511B" offset="0%"/><stop stop-color="#F90" offset="100%"/></linearGradient></defs><g fill="none" fill-rule="evenodd"><path d="M0 0h80v80H0z" fill="url(#a)"/><path d="m64 48.23-8-4.8V32a1 1 0 0 0-.5-.86L44 24.43v-9.68l20 11.82v21.66Zm1.5-23.1-22-13A1 1 0 0 0 42 13v12a1 1 0 0 0 .5.86L54 32.57V44a1 1 0 0 0 .49.86l10 6A1 1 0 0 0 66 50V26a1 1 0 0 0-.5-.86ZM40.46 66.87 17 54.4V26.57l20-11.82v9.7l-10.54 6.7A1 1 0 0 0 26 32v17c0 .37.2.72.54.89l13.45 7a1 1 0 0 0 .92 0l13.05-6.75L62 54.96l-21.55 11.9ZM64.5 54.14l-10-6a1 1 0 0 0-.97-.03l-13.09 6.76L28 48.4V32.55l10.54-6.7A1 1 0 0 0 39 25V13a1 1 0 0 0-1.5-.86l-22 13a1 1 0 0 0-.5.86v29c0 .37.2.7.53.88l24.45 13a1 1 0 0 0 .96 0l23.54-13a1 1 0 0 0 .03-1.74Z" fill="#FFF"/></g></svg>