<svg class="w-6 h-6" height="48" width="48" xmlns="http://www.w3.org/2000/svg"><path d="M24 44a20 20 0 1 1 0-40 20 20 0 0 1 0 40zm0-42a22 22 0 1 0 0 44 22 22 0 0 0 0-44zm-6.8 33.3H12L18.2 22l2.7 5.5-3.7 7.8zm2-16a1 1 0 0 0-1-.6 1 1 0 0 0-.9.5l-8 16.6a1 1 0 0 0 1 1.5h7.6a1 1 0 0 0 .9-.6l4.1-8.8a1 1 0 0 0 0-.8l-3.8-7.9zm17 16h-5.5L20.7 14a1 1 0 0 0-.8-.6h-3.6V9.2h7.2l9.8 21.3a1 1 0 0 0 1 .6H36v4.1zm1-6.2h-2.3L25 7.8a1 1 0 0 0-.9-.6h-8.8a1 1 0 0 0-1 1v6.2a1 1 0 0 0 1 1h4L29 36.7a1 1 0 0 0 1 .5h7a1 1 0 0 0 1-1v-6a1 1 0 0 0-1-1z" fill="#D45B07" fill-rule="evenodd"/></svg>