<svg xmlns="http://www.w3.org/2000/svg" viewBox="0 0 48 48" width="480" height="480"><path fill="#252f3e" d="M13.53 21.53c0 .6.06 1.08.17 1.43.13.36.29.75.51 1.16a.7.7 0 0 1 .12.38c0 .16-.1.32-.3.48l-1.01.68a.76.76 0 0 1-.42.14c-.16 0-.32-.08-.48-.22-.22-.25-.41-.5-.57-.76-.16-.28-.32-.58-.5-.95a5.88 5.88 0 0 1-4.7 2.22c-1.33 0-2.4-.39-3.18-1.16s-1.18-1.8-1.18-3.1c0-1.37.47-2.48 1.45-3.32s2.27-1.25 3.9-1.25c.55 0 1.11.04 1.7.12s1.2.21 1.84.36v-1.18c0-1.22-.26-2.08-.75-2.58-.51-.5-1.38-.74-2.6-.74-.56 0-1.14.06-1.73.21-.59.15-1.16.32-1.72.55a4.64 4.64 0 0 1-.82.26c-.22 0-.33-.16-.33-.5v-.8c0-.25.03-.44.11-.56.08-.11.22-.22.45-.34a9.16 9.16 0 0 1 2-.72c.8-.21 1.62-.3 2.5-.3 1.9 0 3.29.43 4.18 1.3.88.87 1.33 2.2 1.33 3.96v5.23h.03zm-6.48 2.45c.52 0 1.07-.1 1.64-.3.57-.18 1.09-.54 1.52-1.02.25-.3.44-.65.54-1.04.1-.38.16-.85.16-1.4v-.67a13.07 13.07 0 0 0-2.97-.38c-1.07 0-1.85.21-2.38.65s-.78 1.05-.78 1.85c0 .76.19 1.32.59 1.71.38.4.94.6 1.67.6zm12.81 1.74c-.28 0-.47-.05-.6-.16-.13-.1-.24-.32-.34-.63l-3.75-12.46c-.1-.32-.14-.53-.14-.65 0-.26.12-.4.38-.4h1.56c.3 0 .52.05.63.16.13.1.22.32.32.63l2.68 10.67 2.49-10.67c.08-.32.17-.53.3-.63.13-.1.35-.16.64-.16h1.28c.3 0 .5.05.64.16.12.1.24.32.3.63l2.52 10.8 2.76-10.8c.1-.32.21-.53.32-.63.13-.1.34-.16.63-.16h1.48c.26 0 .4.13.4.4l-.03.26c-.01.1-.05.23-.11.4l-3.85 12.47c-.1.32-.2.53-.34.63s-.33.16-.6.16h-1.38c-.3 0-.5-.05-.64-.16-.12-.12-.23-.33-.3-.65l-2.47-10.4-2.46 10.38c-.08.33-.18.54-.3.65-.13.11-.35.16-.64.16h-1.38zm20.52.44a10.49 10.49 0 0 1-4.3-.94c-.25-.14-.43-.3-.49-.45-.06-.14-.1-.3-.1-.45v-.82c0-.34.13-.5.37-.5.1 0 .2.01.29.04l.4.17a8.6 8.6 0 0 0 3.65.75c1 0 1.8-.17 2.33-.53.55-.35.83-.87.83-1.53 0-.45-.14-.82-.43-1.13a4 4 0 0 0-1.6-.84L39 19.21a4.87 4.87 0 0 1-2.56-1.65 3.86 3.86 0 0 1 .78-5.45 5.04 5.04 0 0 1 1.66-.84 8.01 8.01 0 0 1 3.08-.2c.37.04.7.1 1.04.17.32.08.63.16.91.26s.51.2.67.29c.23.13.39.26.48.4.1.13.15.3.15.53v.76c0 .34-.13.52-.37.52-.13 0-.33-.07-.6-.2a7.25 7.25 0 0 0-3.07-.62c-.91 0-1.63.14-2.12.45-.5.3-.75.77-.75 1.43 0 .45.16.84.47 1.15.32.3.91.61 1.76.88l2.27.73c1.15.37 1.98.89 2.47 1.55s.74 1.42.74 2.26c0 .69-.15 1.32-.42 1.87a4.34 4.34 0 0 1-1.16 1.41c-.5.4-1.09.7-1.78.9-.72.23-1.47.35-2.28.35z"/><path fill="#f90" d="M43.4 34c-5.26 3.91-12.89 5.99-19.45 5.99-9.2 0-17.48-3.43-23.74-9.14-.5-.45-.05-1.07.54-.71a47.52 47.52 0 0 0 23.76 6.37c5.83 0 12.23-1.23 18.12-3.74.88-.4 1.63.58.77 1.22zm2.18-2.52c-.67-.87-4.43-.42-6.14-.21-.51.06-.6-.39-.13-.73 3-2.13 7.93-1.51 8.5-.8.58.72-.15 5.7-2.96 8.09-.43.37-.85.18-.66-.3.64-1.6 2.06-5.2 1.4-6.05z"/></svg>