<svg xmlns="http://www.w3.org/2000/svg" viewBox="0 0 87 87"><defs><style>.cls-1{fill:#494949}</style></defs><g id="Layer_2" data-name="Layer 2"><g id="Layer_1-2" data-name="Layer 1"><path class="cls-1" d="M43.5 0A43.5 43.5 0 0 1 87 43.5 43.5 43.5 0 0 1 43.5 87 43.5 43.5 0 0 1 0 43.5 43.5 43.5 0 0 1 43.5 0Z"/><path d="M43.5 5.3a38.3 38.3 0 0 1 38.3 38.2 38.3 38.3 0 0 1-38.3 38.3A38.3 38.3 0 0 1 5.2 43.5 38.3 38.3 0 0 1 43.5 5.2Z" style="fill:#fff"/><path class="cls-1" d="M23.7 44.3c.1 6.4 4.1 9 8.9 9a16.7 16.7 0 0 0 7-1.4l.9 3.4a20.6 20.6 0 0 1-8.6 1.7c-7.9 0-12.7-5.3-12.7-13s4.6-13.9 12.2-13.9c8.3 0 10.6 7.3 10.6 12a10.2 10.2 0 0 1-.2 2.3ZM37.5 41c0-3-1.3-7.6-6.5-7.6-4.8 0-6.9 4.3-7.2 7.6ZM49.8 30.6l3.7 5.5 2.6 4.2h.1c.8-1.5 1.8-2.8 2.6-4.2l3.6-5.5h5L58.8 43l9 13.4h-5.2l-3.9-5.8-2.7-4.5h-.1L53 50.6l-3.8 5.8h-5.1l9.1-13.2-8.7-12.6Z"/></g></g></svg>