<svg width="200" height="200" fill="none" xmlns="http://www.w3.org/2000/svg"><g clip-path="url(#a)"><path d="M17.31 91.84c2.03 2.35 40.63 15.16 53.9 30.78 13.45 15.63 19.23 29.54 17.35 42.97-1.87 13.44-10.15 13.13-13.6 18.13-3.58 4.84-8.58 10.94-17.96 10.31-12.5-.78-25.31-7.03-34.53-28.6-9.22-21.56-8.6-41.87-7.81-53.12.62-11.4 2.65-20.47 2.65-20.47Z" fill="url(#b)"/><path d="m18.4 95.44 57.82 86.25-2.66 2.97-55.15-89.22Z" fill="url(#c)"/><path d="m-203 215.28.47-3.75c15.47-8.28 34.53-11.4 50.16-19.37 4.68 2.03 6.71-.94 11.71-.63 1.88 1.56-2.34 3.75 2.66 3.44 11.1 1.4 22.03-.63 32.97-1.56 11.56-.94 22.97.15 34.37-.63 3.6-.16 9.22-5.16 13.6-2.66 2.03 3.6-6.56 3.91-4.22 7.97 22.66 5.32 79.37 27.82 89.06 3.28.16 1.57-1.72 4.38.94 4.07 19.06-8.6 51.56-27.03 57.34-31.88 6.25-5.31 14.69-5.15 22.81-7.03 14.85-3.44 30.63-6.87 43.44-14.37 7.97 5.47 24.53 8.28 33.28 6.25 9.22-2.03 23.6-17.35 31.25-22.82 2.97-2.18 7.5-6.25 10.63-3.9-2.19 1.56.31 5.94-2.34 5.15-1.41-2.65-4.22.47-6.25-.15-7.66 6.4-15.79 12.34-23.6 18.44-3.75 2.18 3.6 4.53-.78 5.3-20.31 4.07-51.4-6.09-64.22 7.98-20.31 7.03-39.53 8.75-59.53 19.53-11.56 6.25-25.63 17.5-37.66 23.44-2.03.93-5 1.4-7.34 2.8-2.97 1.73-3.6 4.07-6.1 4.54-6.09 1.25-18.74-1.88-26.87-2.97-26.56-3.9-55-14.69-80.16-16.1-10-.46-21.71 1.1-32.96 1.57-23.91 1.1-38.75 1.72-57.97 8.12-7.5 2.66-19.69 9.7-24.69 5.94Z" fill="#3D3D3C"/><path d="M166.06 7c-2.65 4.38-63.9 35.94-82.18 65.47-18.44 29.69-23.6 52.97-16.88 74.84 6.72 21.88 19.38 20.94 26.56 28.13 7.19 7.19 17.03 15.94 32.81 12.5 20.63-4.69 40.47-18.44 50.32-56.88 9.84-38.44 3.44-72.19-.78-90.78A271.9 271.9 0 0 0 166.06 7Z" fill="url(#d)"/><path d="M164.97 13.56 90.75 172.62l4.38 4.38 69.84-163.44Z" fill="url(#e)"/></g><defs><linearGradient id="b" x1="-451.18" y1="4730.55" x2="7767.64" y2="5477.39" gradientUnits="userSpaceOnUse"><stop stop-color="#8AC443"/><stop offset="1" stop-color="#75B843"/></linearGradient><linearGradient id="c" x1="-606.05" y1="3979.87" x2="6484.9" y2="4487.17" gradientUnits="userSpaceOnUse"><stop stop-color="#75B843"/><stop offset="1" stop-color="#4B9744"/></linearGradient><linearGradient id="d" x1="12836.2" y1="7540.24" x2="-674.73" y2="9441.9" gradientUnits="userSpaceOnUse"><stop stop-color="#C1DB74"/><stop offset="1" stop-color="#ACD259"/></linearGradient><linearGradient id="e" x1="9670.36" y1="6287.28" x2="-2005.53" y2="7094.95" gradientUnits="userSpaceOnUse"><stop stop-color="#ACD259"/><stop offset="1" stop-color="#8AC443"/></linearGradient><clipPath id="a"><path fill="#fff" d="M0 0h200v200H0z"/></clipPath></defs></svg>