<svg xmlns="http://www.w3.org/2000/svg" width="64" height="64" viewBox="0 0 32 32"><path d="m15.9.09.85 1.6c.2.3.4.56.65.8a19.7 19.7 0 0 1 5.12 8.56c.42 1.4.65 2.82.67 4.27a15.07 15.07 0 0 1-5.97 12.46c-.3 0-.44-.22-.56-.43a6.06 6.06 0 0 1-.58-2.84v-.25C16.06 24.21 15.8.21 15.9.1z" fill="#599636"/><path d="M15.9.03c-.04-.07-.07-.01-.1.02.01.35-.11.66-.3.96-.21.3-.49.52-.77.77A16.7 16.7 0 0 0 11 6.55a19.19 19.19 0 0 0-2.16 7.81c-.1 1 .3 4.5.62 5.51a16.7 16.7 0 0 0 5.93 8.21c.15 0 .17-.14.2-.24a4.78 4.78 0 0 0 .16-.68l.35-2.62L15.9.04z" fill="#6cac48"/><path d="M16.75 28.84c.04-.4.23-.73.44-1.06a1.1 1.1 0 0 1-.49-.45c-.1-.17-.19-.38-.26-.58-.24-.73-.3-1.5-.36-2.24v-.46c-.1.07-.1.67-.1.75a17.37 17.37 0 0 1-.32 2.36c-.06.31-.09.62-.28.9l.01.12c.32.93.4 1.87.46 2.83v.35c0 .42-.02.33.33.47.14.05.3.07.43.17.1 0 .13-.08.13-.15l-.06-.58v-1.6c-.01-.28.04-.56.07-.82z" fill="#c2bfbf"/></svg>