<svg xmlns="http://www.w3.org/2000/svg" viewBox="0 0 50 50" width="480" height="480"><path d="M25 12c-6.5 0-12.38 1.36-16.73 3.63C3.93 17.9 1 21.17 1 25c0 3.83 2.93 7.1 7.27 9.37C12.62 36.64 18.51 38 25 38c6.5 0 12.38-1.36 16.73-3.63C46.07 32.1 49 28.83 49 25c0-3.83-2.93-7.1-7.27-9.37C37.38 13.36 31.49 12 25 12Zm0 2c6.21 0 11.82 1.32 15.8 3.4 3.98 2.08 6.2 4.8 6.2 7.6s-2.22 5.52-6.2 7.6S31.21 36 25 36c-6.21 0-11.82-1.32-15.8-3.4C5.22 30.52 3 27.8 3 25s2.22-5.52 6.2-7.6S18.79 14 25 14Zm-2.5 2L20 28h2.63l1.26-6H26c.67 0 1.11.1 1.32.33.2.22.24.65.13 1.25L26.48 28h2.66l1.04-4.78c.23-1.14.06-1.98-.5-2.5-.56-.51-1.56-.72-3.04-.72H24.3l.83-4ZM11 20 8.97 31h2.65l.52-3h1.65c3.45 0 5.32-.8 6.02-3.75.6-2.55-.93-4.25-3.48-4.25Zm21 0-2.03 11h2.65l.52-3h1.65c3.45 0 5.32-.8 6.02-3.75.6-2.55-.94-4.25-3.48-4.25Zm-18.73 2h2.06c1.71 0 2.07.77 1.98 1.63-.23 2.2-1.6 2.37-3.08 2.37h-1.71Zm21 0h2.06c1.71 0 2.07.77 1.98 1.63-.23 2.2-1.6 2.37-3.08 2.37h-1.71Z"/></svg>