<svg xmlns="http://www.w3.org/2000/svg" viewBox="0 0 48 48" width="480" height="480"><path fill="#b71c1c" d="M45 29.32c0-.64-1.69-1.16-3.77-1.16-1.81 0-3.32.4-3.68.91L26.79 24a4.53 4.53 0 0 0-3.92.02l-11.45 5.5c-.87-.12-1.91-.2-3.03-.2-2.98 0-5.39.52-5.39 1.16v3.46c0 .03.03.06.04.1-.14.55.07 1.2.65 1.47l16.93 8a5.2 5.2 0 0 0 4.5-.02l19.32-9.3c.48-.23.65-.78.5-1.24.03-.06.06-.11.06-.16v-3.46z"/><path fill="#e53935" d="M20.62 39.16 3.69 31.59a1.18 1.18 0 0 1 0-2.14l19.18-8.74a4.76 4.76 0 0 1 3.92-.01l17.64 7.89a.96.96 0 0 1 0 1.75c-6.43 2.94-12.88 5.87-19.32 8.8a5.47 5.47 0 0 1-4.5.02z"/><path fill="#b71c1c" d="M45 21.68c0-.64-1.69-1.16-3.77-1.16-1.81 0-3.32.4-3.68.91l-10.76-5.08a4.53 4.53 0 0 0-3.92.01l-11.45 5.52c-.87-.13-1.91-.2-3.03-.2-2.98 0-5.39.51-5.39 1.15v3.46c0 .03.03.06.04.1-.14.55.07 1.2.65 1.47l16.93 8a5.2 5.2 0 0 0 4.5-.02l19.32-9.3c.48-.23.65-.78.5-1.24.03-.06.06-.11.06-.16v-3.46z"/><path fill="#e53935" d="M20.62 31.52 3.69 23.95a1.18 1.18 0 0 1 0-2.14l19.18-8.74a4.76 4.76 0 0 1 3.92-.02l17.64 7.9a.96.96 0 0 1 0 1.75l-19.32 8.8a5.46 5.46 0 0 1-4.5.02z"/><path fill="#b71c1c" d="M45 14.04c0-.64-1.69-1.16-3.77-1.16-1.81 0-3.32.4-3.68.91L26.79 8.71a4.53 4.53 0 0 0-3.92.01l-11.45 5.51c-.87-.12-1.91-.2-3.03-.2-2.98 0-5.39.52-5.39 1.16v3.46c0 .03.03.06.04.1-.14.55.07 1.2.65 1.47l16.93 8a5.2 5.2 0 0 0 4.5-.02l19.32-9.3c.48-.23.65-.78.5-1.25.03-.05.06-.1.06-.16v-3.45z"/><path fill="#e53935" d="M20.62 23.88 3.69 16.3a1.18 1.18 0 0 1 0-2.14l19.18-8.74a4.76 4.76 0 0 1 3.92-.02l17.64 7.9a.96.96 0 0 1 0 1.75l-19.32 8.8a5.46 5.46 0 0 1-4.5.02z"/><path fill="#fff" d="M18.75 14.74c0 1.04-2.76 2.06-5.1 2.09-2.41.03-5.27-1-5.28-2.05 0-1.07 2.85-2.17 5.31-2.14 2.34.02 5.07 1.06 5.07 2.1zM17.04 18.47l7.18 3.07 3.16-4.68-10.34 1.61zM21.86 9.78l-3.3 1.2 4.52.4 1.44 2.38.88-2.17 3.86-.3-3-1.26.77-1.82-2.9.87L20.9 7.8l.95 1.97z"/><path fill="#b71c1c" d="m27.27 14.62 6.81-2.72 5.89 2.5-6.6 2.63-6.1-2.41z"/><path fill="#a01c1c" d="m34.08 11.96-.01 4.79 5.9-2.35-5.89-2.44z"/></svg>