<svg xmlns="http://www.w3.org/2000/svg" width="64" height="64" viewBox="0 0 6.55 6.55" preserveAspectRatio="xMidYMid"><defs><linearGradient x1="2.98" y1=".53" x2="2.98" y2="4.74" id="a" gradientUnits="userSpaceOnUse"><stop stop-color="#97d9f6" offset="0%"/><stop stop-color="#0f80cc" offset="92.02%"/><stop stop-color="#0f80cc" offset="100%"/></linearGradient></defs><path d="M4.96.29H.85a.5.5 0 0 0-.5.5v4.54c0 .27.22.5.5.5h2.7A12 12 0 0 1 4.97.29z" fill="#0f80cc"/><path d="M4.81.44H.85C.65.44.49.6.49.79V5c.9-.34 2.25-.64 3.18-.62A28.93 28.93 0 0 1 4.8.44z" fill="url(#a)"/><path d="M5.92.14C5.64-.1 5.3 0 4.96.3l-.15.15a6.04 6.04 0 0 0-1.28 2.6 2.38 2.38 0 0 1 .15.43l.02.1.03.1-.03-.08-.01-.04a.46.46 0 0 0-.01-.02 4.72 4.72 0 0 0-.19-.35 8.79 8.79 0 0 0-.1.32c.13.24.2.65.2.65l-.03-.12c-.03-.08-.18-.34-.21-.4-.06.22-.08.37-.06.4.04.08.08.2.11.33a7.52 7.52 0 0 1 .13.67v.06a6.11 6.11 0 0 0 .02.75c.03.31.08.58.14.73l.04-.03a3.28 3.28 0 0 1-.1-1.08c.02-.66.17-1.45.45-2.27A6.64 6.64 0 0 1 5.8.46c-.55.5-1.28 2.09-1.5 2.68-.25.66-.43 1.28-.53 1.87.18-.56.77-.8.77-.8s.29-.35.62-.86l-.64.17-.2.1s.52-.33.98-.48c.63-.98 1.3-2.39.62-3" fill="#003b57"/></svg>