<svg xmlns="http://www.w3.org/2000/svg" viewBox="0 0 48 48" width="480" height="480"><path fill="#fff" d="M24 4a20 20 0 1 0 0 40 20 20 0 1 0 0-40Z"/><path fill="#01579b" d="M8 24a16 16 0 0 0 9 14.4l-7.6-21A16 16 0 0 0 8 24zm26.8-.8c0-2-1-3.4-1.7-4.4-.8-1.3-1.5-2.5-1.5-3.8 0-1.4 1.4-2.8 3-2.8h.2A15.9 15.9 0 0 0 11 14.7h.7a71 71 0 0 0 4.2-.1c.9 0 1 1.2.1 1.3l-1.8.2 6 17.7 3.4-10.5-2.6-7.2-1.7-.2c-.8 0-.7-1.3.1-1.3l4.3.2 4.2-.2c.9 0 1 1.2.1 1.3l-1.8.2L32 33.7l1.6-5.3c.8-2.1 1.2-3.8 1.2-5.2zm-10.5 2.2-4.8 14a15.9 15.9 0 0 0 9.8-.3l-.1-.2-5-13.5zm13.7-9 .2 1.6c0 1.6-.4 3.4-1.3 5.7L32 37.8a16 16 0 0 0 6-21.5z"/><path fill="#01579b" d="M4 24a20 20 0 1 0 40 0 20 20 0 0 0-40 0zm2 0a18 18 0 1 1 36 0 18 18 0 0 1-36 0z"/></svg>